<svg width="68" height="70" viewBox="0 0 68 70" fill="none" xmlns="http://www.w3.org/2000/svg">
<path d="M70 35C70 54.33 54.33 70 35 70C15.67 70 0 54.33 0 35C0 15.67 15.67 0 35 0C54.33 0 70 15.67 70 35Z" fill="white"/>
<path d="M35 0H105V70H35V0Z" fill="white"/>
<path d="M60 35C60 48.8071 48.8071 60 35 60C21.1929 60 10 48.8071 10 35C10 21.1929 21.1929 10 35 10C48.8071 10 60 21.1929 60 35Z" fill="#8AC6DA" fill-opacity="0.9995"/>
<path d="M36.5488 41H34.1488C33.9461 41 33.7968 40.9573 33.7008 40.872C33.6154 40.776 33.5728 40.6266 33.5728 40.424V30.056C33.5728 29.8533 33.6154 29.7093 33.7008 29.624C33.7968 29.528 33.9461 29.48 34.1488 29.48H35.8128C36.0154 29.48 36.1861 29.512 36.3248 29.576C36.4741 29.64 36.6181 29.752 36.7568 29.912L39.8608 33.464V30.056C39.8608 29.8533 39.9034 29.7093 39.9888 29.624C40.0848 29.528 40.2341 29.48 40.4368 29.48H42.8368C43.0394 29.48 43.1834 29.528 43.2688 29.624C43.3648 29.7093 43.4128 29.8533 43.4128 30.056V40.424C43.4128 40.6266 43.3648 40.776 43.2688 40.872C43.1834 40.9573 43.0394 41 42.8368 41H40.4368C40.2341 41 40.0848 40.9573 39.9888 40.872C39.9034 40.776 39.8608 40.6266 39.8608 40.424V38.456L37.1248 35.144V40.424C37.1248 40.6266 37.0768 40.776 36.9808 40.872C36.8954 40.9573 36.7514 41 36.5488 41Z" fill="white"/>
<path d="M31.104 41H23.68C23.4773 41 23.328 40.9573 23.232 40.872C23.1467 40.776 23.104 40.6266 23.104 40.424V30.056C23.104 29.8533 23.1467 29.7093 23.232 29.624C23.328 29.528 23.4773 29.48 23.68 29.48H31.104C31.3067 29.48 31.4507 29.528 31.536 29.624C31.632 29.7093 31.68 29.8533 31.68 30.056V31.928C31.68 32.1306 31.632 32.28 31.536 32.376C31.4507 32.4613 31.3067 32.504 31.104 32.504H26.688V33.736H29.808C30.0107 33.736 30.1547 33.784 30.24 33.88C30.336 33.9653 30.384 34.1093 30.384 34.312V36.024C30.384 36.2266 30.336 36.376 30.24 36.472C30.1547 36.5573 30.0107 36.6 29.808 36.6H26.688V37.976H31.104C31.3067 37.976 31.4507 38.024 31.536 38.12C31.632 38.2053 31.68 38.3493 31.68 38.552V40.424C31.68 40.6266 31.632 40.776 31.536 40.872C31.4507 40.9573 31.3067 41 31.104 41Z" fill="white"/>
</svg>
